<svg width="24" height="24" viewBox="0 0 24 24" fill="none" xmlns="http://www.w3.org/2000/svg">
  <path d="M18.4553 12.0224L18.5 12.1118L18.5447 12.0224L20.0447 9.02236L20.0809 8.95H20H19.05V7C19.05 5.86782 18.1322 4.95 17 4.95H7C5.86782 4.95 4.95 5.86782 4.95 7V9V9.05H5H6H6.05V9V7C6.05 6.47533 6.47533 6.05 7 6.05H17C17.5247 6.05 17.95 6.47533 17.95 7V8.95H17H16.9191L16.9553 9.02236L18.4553 12.0224ZM5.54472 11.9776L5.5 11.8882L5.45528 11.9776L4.95528 12.9776L3.95528 14.9776L3.9191 15.05H4H4.95V17C4.95 18.1322 5.86782 19.05 7 19.05H17C18.1322 19.05 19.05 18.1322 19.05 17V15V14.95H19H18H17.95V15V17C17.95 17.5247 17.5247 17.95 17 17.95H7C6.47533 17.95 6.05 17.5247 6.05 17V15.05H7H7.0809L7.04472 14.9776L5.54472 11.9776Z" fill="black" stroke="black" stroke-width="0.1"/>
</svg>
