<svg width="18" height="16" viewBox="0 0 18 16" fill="none" xmlns="http://www.w3.org/2000/svg">
<path d="M15.4553 8.02236L15.5 8.1118L15.5447 8.02236L17.0447 5.02236L17.0809 4.95H17H16.05V3C16.05 1.86782 15.1322 0.95 14 0.95H4C2.86782 0.95 1.95 1.86782 1.95 3V5V5.05H2H3H3.05V5V3C3.05 2.47533 3.47533 2.05 4 2.05H14C14.5247 2.05 14.95 2.47533 14.95 3V4.95H14H13.9191L13.9553 5.02236L15.4553 8.02236ZM2.54472 7.97764L2.5 7.8882L2.45528 7.97764L1.95528 8.97764L0.955279 10.9776L0.919098 11.05H1H1.95V13C1.95 14.1322 2.86782 15.05 4 15.05H14C15.1322 15.05 16.05 14.1322 16.05 13V11V10.95H16H15H14.95V11V13C14.95 13.5247 14.5247 13.95 14 13.95H4C3.47533 13.95 3.05 13.5247 3.05 13V11.05H4H4.0809L4.04472 10.9776L2.54472 7.97764Z" fill="black" stroke="black" stroke-width="0.1"/>
</svg>
