<svg width="8" height="8" viewBox="0 0 8 8" fill="none" xmlns="http://www.w3.org/2000/svg">
<g clip-path="url(#clip0)">
<path d="M7.96583 0.22691C7.90143 0.0794396 7.78997 0.00569472 7.63091 0.00561523H0.368904C0.210067 0.00561523 0.0984465 0.0794396 0.0341408 0.22691C-0.0301251 0.381931 -0.00367552 0.514397 0.113609 0.624051L2.91073 3.42109V6.17843C2.91073 6.27689 2.94667 6.36189 3.01851 6.43386L4.47085 7.88617C4.53899 7.95798 4.62407 7.99403 4.72623 7.99403C4.77158 7.99403 4.81883 7.98451 4.86801 7.96561C5.01558 7.90127 5.08939 7.78973 5.08939 7.63087V3.42111L7.8864 0.624071C8.00373 0.514417 8.03012 0.38199 7.96583 0.22691Z" fill="#066BBB"/>
</g>
<defs>
<clipPath id="clip0">
<rect width="8" height="8" fill="white" transform="matrix(-1 0 0 1 8 0)"/>
</clipPath>
</defs>
</svg>
