<svg width="24" height="24" viewBox="0 0 24 24" fill="none" xmlns="http://www.w3.org/2000/svg">
  <path d="M17.3903 6.32678H10.1863L8.6155 5H3V17.2145C3 18.199 3.74335 19.0209 4.65742 19.0466L17.131 19.0541H17.132C17.8875 19.0541 18.5532 18.506 18.7512 17.7209L21 8.80083H17.3903V6.32678ZM4.78606 17.9081L4.67812 17.908V17.9082C4.3411 17.8947 4.05759 17.5787 4.05759 17.2145V6.13861H8.25017L9.82101 7.46539H16.3327V8.80086H7.72053L5.60273 17.1937C5.50004 17.6007 5.17021 17.8853 4.78606 17.9081ZM19.6171 9.93947L17.7305 17.4228C17.6573 17.713 17.4112 17.9156 17.1319 17.9156C17.1318 17.9156 17.1316 17.9156 17.1315 17.9156L6.47313 17.9091C6.53567 17.7784 6.58633 17.639 6.62338 17.4923L8.5292 9.93947H19.6171Z" fill="black"/>
  <path d="M9.60986 16.7678L9.61092 15.6292L15.9959 15.6361L15.9948 16.7747L9.60986 16.7678Z" fill="black"/>
</svg>
