<svg width="17" height="14" viewBox="0 0 17 14" fill="none" xmlns="http://www.w3.org/2000/svg">
<path d="M9.19138 3.0754L9.3396 3.3H9.6087H15.1522C15.9066 3.3 16.5 3.97088 16.5 4.9V12.6C16.5 13.0718 16.088 13.5 15.5217 13.5H1.47826C0.912008 13.5 0.5 13.0718 0.5 12.6V1.4C0.5 0.928221 0.912008 0.5 1.47826 0.5H7.49177L9.19138 3.0754Z" stroke="#808080"/>
<rect x="2.1001" y="2" width="5" height="1" rx="0.5" fill="#808080"/>
<g opacity="0.1">
<path d="M17 12.6V4.9C17 3.78 16.2609 2.8 15.1522 2.8H9.6087L7.76087 0H1.47826C0.66184 0 0 0.626802 0 1.4V12.6C0 13.3732 0.66184 14 1.47826 14H15.5217C16.3382 14 17 13.3732 17 12.6Z" fill="black"/>
</g>
</svg>
