<svg width="16" height="16" viewBox="0 0 16 16" fill="none" xmlns="http://www.w3.org/2000/svg">
<rect width="16" height="16" fill="#E5E5E5"/>
<rect width="705" height="742" transform="translate(-489 -633)" fill="white"/>
<g filter="url(#filter0_d)">
<path d="M-26.0004 -98.8286C-26.0004 -100.028 -25.1095 -101 -24.0106 -101H184C185.099 -101 185.99 -100.028 185.99 -98.8286L186 39.8286C186 41.0278 185.109 42 184.01 42H-24.0005C-25.0994 42 -25.9903 41.0278 -25.9903 39.8286L-26.0004 -98.8286Z" fill="white"/>
<path d="M-35 -70.9009L-26.0004 -79.9009V-61.9009L-35 -70.9009Z" fill="white"/>
</g>
<path fill-rule="evenodd" clip-rule="evenodd" d="M1 0C0.447715 0 0 0.447715 0 1V15C0 15.5523 0.447715 16 1 16H15C15.5523 16 16 15.5523 16 15V1C16 0.447715 15.5523 0 15 0H1ZM14.5 1H1.5C1.22386 1 1 1.22386 1 1.5V14.5C1 14.7761 1.22386 15 1.5 15H14.5C14.7761 15 15 14.7761 15 14.5V1.5C15 1.22386 14.7761 1 14.5 1Z" fill="black"/>
<path d="M5.75636 4L8.00535 10.1319L10.249 4H12V12H10.6506V9.36264L10.7845 5.83516L8.48193 12H7.51272L5.21553 5.84066L5.3494 9.36264V12H4V4H5.75636Z" fill="black"/>
<defs>
<filter id="filter0_d" x="-41" y="-107" width="233" height="155" filterUnits="userSpaceOnUse" color-interpolation-filters="sRGB">
<feFlood flood-opacity="0" result="BackgroundImageFix"/>
<feColorMatrix in="SourceAlpha" type="matrix" values="0 0 0 0 0 0 0 0 0 0 0 0 0 0 0 0 0 0 127 0"/>
<feOffset/>
<feGaussianBlur stdDeviation="3"/>
<feColorMatrix type="matrix" values="0 0 0 0 0 0 0 0 0 0 0 0 0 0 0 0 0 0 0.25 0"/>
<feBlend mode="normal" in2="BackgroundImageFix" result="effect1_dropShadow"/>
<feBlend mode="normal" in="SourceGraphic" in2="effect1_dropShadow" result="shape"/>
</filter>
</defs>
</svg>
