<svg width="16" height="14" viewBox="0 0 16 14" fill="none" xmlns="http://www.w3.org/2000/svg">
<path d="M1.5 7L3 10H2H0L1.5 7Z" fill="black"/>
<path d="M13 0H3C1.89543 0 1 0.89543 1 2V4H2V2C2 1.44772 2.44772 1 3 1H13C13.5523 1 14 1.44772 14 2V3H15V2C15 0.895431 14.1046 0 13 0Z" fill="black"/>
<path d="M3 14H13C14.1046 14 15 13.1046 15 12V11H14V12C14 12.5523 13.5523 13 13 13H3C2.44772 13 2 12.5523 2 12V10H1V12C1 13.1046 1.89543 14 3 14Z" fill="black"/>
<path d="M4 4H11.6V5H4V4Z" fill="black"/>
<path d="M4 6H16V7H4V6Z" fill="black"/>
<path d="M4 8H16V9H4V8Z" fill="black"/>
</svg>
