<svg width="24" height="24" viewBox="0 0 24 24" fill="none" xmlns="http://www.w3.org/2000/svg">
<path fill-rule="evenodd" clip-rule="evenodd" d="M5 4C4.44772 4 4 4.44772 4 5V19C4 19.5523 4.44772 20 5 20H19C19.5523 20 20 19.5523 20 19V5C20 4.44772 19.5523 4 19 4H5ZM18.5 5H5.5C5.22386 5 5 5.22386 5 5.5V18.5C5 18.7761 5.22386 19 5.5 19H18.5C18.7761 19 19 18.7761 19 18.5V5.5C19 5.22386 18.7761 5 18.5 5Z" fill="black"/>
<path d="M9.75636 8L12.0054 14.1319L14.249 8H16V16H14.6506V13.3626L14.7845 9.83516L12.4819 16H11.5127L9.21553 9.84066L9.3494 13.3626V16H8V8H9.75636Z" fill="black"/>
</svg>
