<svg width="24" height="24" viewBox="0 0 24 24" fill="none" xmlns="http://www.w3.org/2000/svg">
<path fill-rule="evenodd" clip-rule="evenodd" d="M5 4C4.44772 4 4 4.44772 4 5V19C4 19.5523 4.44772 20 5 20H19C19.5523 20 20 19.5523 20 19V5C20 4.44772 19.5523 4 19 4H5ZM18.5 5H5.5C5.22386 5 5 5.22386 5 5.5V18.5C5 18.7761 5.22386 19 5.5 19H18.5C18.7761 19 19 18.7761 19 18.5V5.5C19 5.22386 18.7761 5 18.5 5Z" fill="black"/>
<path d="M10.7018 13.36V14.99L7 12.73V11.22L10.6938 9V10.55L8.1995 11.92L10.7018 13.36Z" fill="black"/>
<path d="M17 12.78L13.3062 15V13.44L15.8005 12.07L13.3062 10.63V9L17 11.26V12.78Z" fill="black"/>
</svg>
