<svg width="24" height="24" viewBox="0 0 24 24" fill="none" xmlns="http://www.w3.org/2000/svg">
<circle cx="12" cy="12" r="7.5" stroke="black"/>
<path d="M10.9277 14.2871C10.9368 13.7448 10.9984 13.3164 11.1123 13.002C11.2262 12.6875 11.4587 12.3389 11.8096 11.9561L12.7051 11.0332C13.0879 10.6003 13.2793 10.1354 13.2793 9.63867C13.2793 9.16016 13.154 8.78646 12.9033 8.51758C12.6527 8.24414 12.2881 8.10742 11.8096 8.10742C11.3447 8.10742 10.971 8.23047 10.6885 8.47656C10.4059 8.72266 10.2646 9.05306 10.2646 9.46777H9C9.00911 8.72949 9.27116 8.13477 9.78613 7.68359C10.3057 7.22786 10.9801 7 11.8096 7C12.6709 7 13.3408 7.23242 13.8193 7.69727C14.3024 8.15755 14.5439 8.79102 14.5439 9.59766C14.5439 10.3952 14.1748 11.1813 13.4365 11.9561L12.6914 12.6943C12.3587 13.0635 12.1924 13.5944 12.1924 14.2871H10.9277ZM10.873 16.4541C10.873 16.249 10.9346 16.0781 11.0576 15.9414C11.1852 15.8001 11.3721 15.7295 11.6182 15.7295C11.8643 15.7295 12.0511 15.8001 12.1787 15.9414C12.3063 16.0781 12.3701 16.249 12.3701 16.4541C12.3701 16.6592 12.3063 16.8301 12.1787 16.9668C12.0511 17.099 11.8643 17.165 11.6182 17.165C11.3721 17.165 11.1852 17.099 11.0576 16.9668C10.9346 16.8301 10.873 16.6592 10.873 16.4541Z" fill="black"/>
</svg>
