<svg width="20"
     height="20"
     viewBox="0 0 20 20"
     fill="none"
     xmlns="http://www.w3.org/2000/svg">
  <path d="M9.16669 15.0001H10.8334V13.3334H9.16669V15.0001ZM10 1.66675C5.40002 1.66675 1.66669 5.40008 1.66669 10.0001C1.66669 14.6001 5.40002 18.3334 10 18.3334C14.6 18.3334 18.3334 14.6001 18.3334 10.0001C18.3334 5.40008 14.6 1.66675 10 1.66675ZM10 16.6667C6.32502 16.6667 3.33335 13.6751 3.33335 10.0001C3.33335 6.32508 6.32502 3.33341 10 3.33341C13.675 3.33341 16.6667 6.32508 16.6667 10.0001C16.6667 13.6751 13.675 16.6667 10 16.6667ZM10 5.00008C8.15835 5.00008 6.66669 6.49175 6.66669 8.33342H8.33335C8.33335 7.41675 9.08335 6.66675 10 6.66675C10.9167 6.66675 11.6667 7.41675 11.6667 8.33342C11.6667 10.0001 9.16669 9.79175 9.16669 12.5001H10.8334C10.8334 10.6251 13.3334 10.4167 13.3334 8.33342C13.3334 6.49175 11.8417 5.00008 10 5.00008Z"
        fill="white"/>
</svg>
