<svg width="16" height="16" viewBox="0 0 16 16" fill="none" xmlns="http://www.w3.org/2000/svg">
<circle cx="8" cy="8" r="7.5" stroke="black"/>
<path d="M6.92773 10.2871C6.93685 9.74479 6.99837 9.31641 7.1123 9.00195C7.22624 8.6875 7.45866 8.33887 7.80957 7.95605L8.70508 7.0332C9.08789 6.60026 9.2793 6.13542 9.2793 5.63867C9.2793 5.16016 9.15397 4.78646 8.90332 4.51758C8.65267 4.24414 8.28809 4.10742 7.80957 4.10742C7.34473 4.10742 6.97103 4.23047 6.68848 4.47656C6.40592 4.72266 6.26465 5.05306 6.26465 5.46777H5C5.00911 4.72949 5.27116 4.13477 5.78613 3.68359C6.30566 3.22786 6.98014 3 7.80957 3C8.6709 3 9.34082 3.23242 9.81934 3.69727C10.3024 4.15755 10.5439 4.79102 10.5439 5.59766C10.5439 6.39518 10.1748 7.18131 9.43652 7.95605L8.69141 8.69434C8.35872 9.06348 8.19238 9.5944 8.19238 10.2871H6.92773ZM6.87305 12.4541C6.87305 12.249 6.93457 12.0781 7.05762 11.9414C7.18522 11.8001 7.37207 11.7295 7.61816 11.7295C7.86426 11.7295 8.05111 11.8001 8.17871 11.9414C8.30632 12.0781 8.37012 12.249 8.37012 12.4541C8.37012 12.6592 8.30632 12.8301 8.17871 12.9668C8.05111 13.099 7.86426 13.165 7.61816 13.165C7.37207 13.165 7.18522 13.099 7.05762 12.9668C6.93457 12.8301 6.87305 12.6592 6.87305 12.4541Z" fill="black"/>
</svg>
