<svg width="11" height="11" viewBox="0 0 11 11" fill="none" xmlns="http://www.w3.org/2000/svg">
<circle cx="5.5" cy="5.5" r="5.5" fill="#066BBB"/>
<path d="M6.32031 9H4.66992V3.7168H6.32031V9ZM4.57227 2.35449C4.57227 2.12012 4.6569 1.92806 4.82617 1.77832C4.99544 1.62858 5.21517 1.55371 5.48535 1.55371C5.75553 1.55371 5.97526 1.62858 6.14453 1.77832C6.3138 1.92806 6.39844 2.12012 6.39844 2.35449C6.39844 2.58887 6.3138 2.78092 6.14453 2.93066C5.97526 3.0804 5.75553 3.15527 5.48535 3.15527C5.21517 3.15527 4.99544 3.0804 4.82617 2.93066C4.6569 2.78092 4.57227 2.58887 4.57227 2.35449Z" fill="white"/>
</svg>
