<svg width="193" height="26" viewBox="0 0 193 26" fill="none" xmlns="http://www.w3.org/2000/svg">
  <path d="M192.9 18.7V20.1C192.9 21.7 192.4 23 191.4 24C190.4 25 189.1 25.5 187.5 25.5C183.3 25.5 178.7 25.3 173.8 24.8V20.1C178.7 20.5 182.5 20.6 185.3 20.6C185.7 20.6 186 20.5 186.2 20.2C186.4 20 186.6 19.7 186.6 19.3V18H178.9C177.3 18 176 17.5 175 16.5C174 15.5 173.5 14.2 173.5 12.6V11.3C173.5 9.70003 174 8.40002 175 7.40002C176 6.40002 177.3 5.90002 178.9 5.90002H191.1V10.6H181C180.6 10.6 180.3 10.7 180.1 11C179.9 11.2 179.7 11.5 179.7 11.9C179.7 12.3 179.8 12.6 180.1 12.8C180.4 13 180.6 13.2 181 13.2H187.5C189.1 13.2 190.4 13.7 191.4 14.7C192.4 15.7 192.9 17 192.9 18.7Z" fill="white"/>
  <path d="M171 6.09998V25.2H165.4L165 23.4C163.9 24.1 162.7 24.7 161.5 25C160.3 25.4 159.3 25.5 158.5 25.5H156.9C155.3 25.5 154 25 153 24C152 23 151.5 21.7 151.5 20.1V6.09998H157.8V19.1C157.8 19.5 157.9 19.8 158.2 20C158.4 20.2 158.7 20.4 159.1 20.4H160.4C161.7 20.4 163.1 20.2 164.7 19.7V6.09998H171Z" fill="white"/>
  <path d="M148.3 11.5V18.2H135.9V19.7C135.9 20 136 20.4 136.3 20.6C136.5 20.8 136.8 21 137.2 21C139.6 21 143.1 20.8 147.6 20.5V25C143 25.5 138.8 25.7 135 25.7C133.4 25.7 132.1 25.2 131.1 24.2C130.1 23.2 129.6 21.9 129.6 20.3V11.7C129.6 9.9 130.1 8.5 131.1 7.5C132.1 6.5 133.5 6 135.3 6H142.5C144.3 6 145.7 6.5 146.7 7.5C147.7 8.5 148.3 9.7 148.3 11.5ZM142 13.6V11.6C142 10.6 141.5 10.2 140.6 10.2H137.4C136.4 10.2 136 10.7 136 11.6V13.6H142Z" fill="white"/>
  <path d="M127.4 18.7V20.1C127.4 21.7 126.9 23 125.9 24C124.9 25 123.6 25.5 122 25.5C117.8 25.5 113.2 25.3 108.3 24.8V20.1C113.2 20.5 117 20.6 119.8 20.6C120.2 20.6 120.5 20.5 120.7 20.2C120.9 19.9 121.1 19.7 121.1 19.3V18H113.4C111.8 18 110.5 17.5 109.5 16.5C108.5 15.5 108 14.2 108 12.6V11.3C108 9.70003 108.5 8.40002 109.5 7.40002C110.5 6.40002 111.8 5.90002 113.4 5.90002H125.6V10.6H115.5C115.1 10.6 114.8 10.7 114.6 11C114.4 11.2 114.2 11.5 114.2 11.9C114.2 12.3 114.3 12.6 114.6 12.8C114.8 13 115.1 13.2 115.5 13.2H122C123.6 13.2 124.9 13.7 125.9 14.7C126.9 15.7 127.4 17 127.4 18.7Z" fill="white"/>
  <path d="M106.5 5.69995V11.3H103.4C101.9 11.3 100.3 11.7 98.7 12.4V25.2H92.4V6.09995H98L98.4 8.39995C100.5 6.59995 102.6 5.69995 104.9 5.69995H106.5Z" fill="white"/>
  <path d="M89.3 11.5V18.2H76.8V19.7C76.8 20 76.9 20.4 77.2 20.6C77.4 20.8 77.7 21 78.1 21C80.5 21 83.9 20.8 88.5 20.5V25C83.9 25.5 79.7 25.7 75.9 25.7C74.3 25.7 73 25.2 72 24.2C71 23.2 70.5 21.9 70.5 20.3V11.7C70.5 9.9 71 8.5 72 7.5C73 6.5 74.4 6 76.2 6H83.4C85.2 6 86.6 6.5 87.6 7.5C88.6 8.5 89.3 9.7 89.3 11.5ZM83 13.6V11.6C83 10.6 82.5 10.2 81.6 10.2H78.4C77.4 10.2 77 10.7 77 11.6V13.6H83Z" fill="white"/>
  <path d="M52.2 18V25.2H45.7V17.9H51.6L52.2 18Z" fill="white"/>
  <path d="M51.6 12.9H45.7V0H60.8C63.3 0 65.2 0.6 66.3 1.7C67.4 2.8 68 4.7 68 7.2V10.8C68 13.3 67.4 15.2 66.3 16.3C65.2 17.4 63.3 18 60.8 18H52.2H51.6V12.9ZM52.2 5V12.9H59.4C60.8 12.9 61.6 12.2 61.6 10.7V7.2C61.6 5.8 60.9 5 59.4 5H52.2Z" fill="white"/>
  <path d="M51.6 12.9H45.7V17.9H51.6V12.9Z" fill="white"/>
  <path d="M43.6 12.9H43.4H45.7V17.9H43.6V12.9Z" fill="white"/>
  <path d="M43.6 12.9V17.9H43V12.9H43.4H43.6Z" fill="white"/>
  <path d="M30.2 10.4L19.3 0H33.8L40.3 12.6L43.4 12.9H43V17.9H43.6V18L41.1 21.5L34.4 17L28 23.7L20 22.1L31.7 14.8L15.9 19.3L10.3 12.9L30.2 12.7L29.9 12.6L30.2 10.4Z" fill="white"/>
  <path d="M30.2 10.4L29.9 12.6L7.4 9.8L0 0H12.8L30.2 10.4Z" fill="white"/>
</svg>
