<svg width="93" height="13" viewBox="0 0 93 13" fill="none" xmlns="http://www.w3.org/2000/svg">
<path d="M93 9.01555V9.69051C93 10.4619 92.759 11.0886 92.2768 11.5708C91.7947 12.0529 91.168 12.2939 90.3966 12.2939C88.3717 12.2939 86.154 12.1975 83.7916 11.9565V9.69051C86.154 9.88336 87.986 9.93157 89.3359 9.93157C89.5288 9.93157 89.6734 9.88336 89.7698 9.73873C89.8663 9.6423 89.9627 9.49767 89.9627 9.30482V8.67807H86.2504C85.479 8.67807 84.8523 8.43701 84.3701 7.9549C83.888 7.47278 83.647 6.84604 83.647 6.07465V5.4479C83.647 4.67652 83.888 4.04977 84.3701 3.56765C84.8523 3.08554 85.479 2.84448 86.2504 2.84448H92.1322V5.11042H87.2628C87.07 5.11042 86.9254 5.15863 86.8289 5.30327C86.7325 5.39969 86.6361 5.54432 86.6361 5.73717C86.6361 5.93002 86.6843 6.07465 86.8289 6.17107C86.9736 6.2675 87.07 6.36392 87.2628 6.36392H90.3966C91.168 6.36392 91.7947 6.60498 92.2768 7.08709C92.759 7.56921 93 8.19596 93 9.01555Z" fill="white"/>
<path d="M82.4418 2.9409V12.1493H79.7419L79.5491 11.2815C79.0188 11.619 78.4402 11.9082 77.8617 12.0529C77.2831 12.2457 76.801 12.2939 76.4153 12.2939H75.644C74.8726 12.2939 74.2458 12.0529 73.7637 11.5708C73.2816 11.0886 73.0405 10.4619 73.0405 9.69051V2.9409H76.0779V9.2084C76.0779 9.40124 76.1261 9.54588 76.2707 9.6423C76.3671 9.73872 76.5118 9.83515 76.7046 9.83515H77.3314C77.9581 9.83515 78.6331 9.73873 79.4044 9.49767V2.9409H82.4418Z" fill="white"/>
<path d="M71.4977 5.54432V8.77449H65.5195V9.49767C65.5195 9.6423 65.5677 9.83515 65.7123 9.93157C65.8088 10.028 65.9534 10.1244 66.1462 10.1244C67.3033 10.1244 68.9907 10.028 71.1602 9.88336V12.0529C68.9425 12.2939 66.9176 12.3904 65.0856 12.3904C64.3142 12.3904 63.6875 12.1493 63.2054 11.6672C62.7232 11.1851 62.4822 10.5583 62.4822 9.78694V5.64075C62.4822 4.77294 62.7232 4.09798 63.2054 3.61586C63.6875 3.13375 64.3624 2.89269 65.2302 2.89269H68.7015C69.5693 2.89269 70.2442 3.13375 70.7263 3.61586C71.2085 4.09798 71.4977 4.67652 71.4977 5.54432ZM68.4604 6.55676V5.59253C68.4604 5.11042 68.2193 4.91757 67.7854 4.91757H66.2427C65.7606 4.91757 65.5677 5.15863 65.5677 5.59253V6.55676H68.4604Z" fill="white"/>
<path d="M61.4214 9.01555V9.69051C61.4214 10.4619 61.1803 11.0886 60.6982 11.5708C60.2161 12.0529 59.5894 12.2939 58.818 12.2939C56.7931 12.2939 54.5754 12.1975 52.213 11.9565V9.69051C54.5754 9.88336 56.4074 9.93157 57.7573 9.93157C57.9502 9.93157 58.0948 9.88336 58.1912 9.73873C58.2876 9.59409 58.3841 9.49767 58.3841 9.30482V8.67807H54.6718C53.9004 8.67807 53.2736 8.43701 52.7915 7.9549C52.3094 7.47278 52.0684 6.84604 52.0684 6.07465V5.4479C52.0684 4.67652 52.3094 4.04977 52.7915 3.56765C53.2736 3.08554 53.9004 2.84448 54.6718 2.84448H60.5536V5.11042H55.6842C55.4914 5.11042 55.3467 5.15863 55.2503 5.30327C55.1539 5.39969 55.0575 5.54432 55.0575 5.73717C55.0575 5.93002 55.1057 6.07465 55.2503 6.17107C55.3467 6.2675 55.4914 6.36392 55.6842 6.36392H58.818C59.5894 6.36392 60.2161 6.60498 60.6982 7.08709C61.1803 7.56921 61.4214 8.19596 61.4214 9.01555Z" fill="white"/>
<path d="M51.3452 2.74805V5.4479H49.8506C49.1275 5.4479 48.3561 5.64074 47.5847 5.97823V12.1493H44.5474V2.9409H47.2472L47.4401 4.04977C48.4525 3.18196 49.4649 2.74805 50.5738 2.74805H51.3452Z" fill="white"/>
<path d="M43.053 5.54432V8.77449H37.0266V9.49767C37.0266 9.6423 37.0748 9.83515 37.2194 9.93157C37.3159 10.028 37.4605 10.1244 37.6533 10.1244C38.8104 10.1244 40.4496 10.028 42.6673 9.88336V12.0529C40.4496 12.2939 38.4247 12.3904 36.5927 12.3904C35.8213 12.3904 35.1945 12.1493 34.7124 11.6672C34.2303 11.1851 33.9893 10.5583 33.9893 9.78694V5.64075C33.9893 4.77294 34.2303 4.09798 34.7124 3.61586C35.1945 3.13375 35.8695 2.89269 36.7373 2.89269H40.2085C41.0763 2.89269 41.7513 3.13375 42.2334 3.61586C42.7155 4.09798 43.053 4.67652 43.053 5.54432ZM40.0157 6.55676V5.59253C40.0157 5.11042 39.7746 4.91757 39.3407 4.91757H37.798C37.3159 4.91757 37.123 5.15863 37.123 5.59253V6.55676H40.0157Z" fill="white"/>
<path fill-rule="evenodd" clip-rule="evenodd" d="M25.1664 8.67807V12.1493H22.0327V8.62986H21.0202L21.0202 8.67807L19.8149 10.3655L16.5848 8.19596L13.4992 11.4261L9.6423 10.6547L15.283 7.1353L7.66562 9.30482L4.96578 6.21928L14.5599 6.12286L14.4152 6.07465L3.56765 4.72473L0 0H6.17107L14.5599 5.014L9.30481 0H16.2955L19.4292 6.07465L20.9238 6.21929H21.0202L22.0327 6.21928V0H29.3126C30.5179 0 31.4339 0.289269 31.9642 0.819596C32.4946 1.34992 32.7838 2.26594 32.7838 3.47123V5.20684C32.7838 6.41213 32.4946 7.32815 31.9642 7.85848C31.4339 8.3888 30.5179 8.67807 29.3126 8.67807H25.1664ZM25.1664 6.21928V2.41058H28.6376C29.3608 2.41058 29.6983 2.79627 29.6983 3.47123V5.15863C29.6983 5.8818 29.3126 6.21928 28.6376 6.21928H25.1664Z" fill="white"/>
</svg>
