<svg width="24" height="24" viewBox="0 0 24 24" fill="none" xmlns="http://www.w3.org/2000/svg">
<path fill-rule="evenodd" clip-rule="evenodd" d="M5 4C4.44772 4 4 4.44772 4 5V19C4 19.5523 4.44771 20 5 20H14C14.5523 20 15 19.5523 15 19V17H14V19H5V5H14V7H15V5C15 4.44772 14.5523 4 14 4H5Z" fill="black"/>
<path d="M20.8536 12.3536C21.0488 12.1583 21.0488 11.8417 20.8536 11.6464L17.6716 8.46447C17.4763 8.2692 17.1597 8.2692 16.9645 8.46447C16.7692 8.65973 16.7692 8.97631 16.9645 9.17157L19.7929 12L16.9645 14.8284C16.7692 15.0237 16.7692 15.3403 16.9645 15.5355C17.1597 15.7308 17.4763 15.7308 17.6716 15.5355L20.8536 12.3536ZM8 12.5H20.5V11.5H8V12.5Z" fill="black"/>
</svg>
