<svg width="17" height="16" viewBox="0 0 17 16" fill="none" xmlns="http://www.w3.org/2000/svg">
<path fill-rule="evenodd" clip-rule="evenodd" d="M1 0C0.447715 0 0 0.447715 0 1V15C0 15.5523 0.447715 16 1 16H10C10.5523 16 11 15.5523 11 15V13H10V15H1V1H10V3H11V1C11 0.447715 10.5523 0 10 0H1Z" fill="black"/>
<path d="M16.8536 8.35355C17.0488 8.15829 17.0488 7.84171 16.8536 7.64645L13.6716 4.46447C13.4763 4.2692 13.1597 4.2692 12.9645 4.46447C12.7692 4.65973 12.7692 4.97631 12.9645 5.17157L15.7929 8L12.9645 10.8284C12.7692 11.0237 12.7692 11.3403 12.9645 11.5355C13.1597 11.7308 13.4763 11.7308 13.6716 11.5355L16.8536 8.35355ZM4 8.5H16.5V7.5H4V8.5Z" fill="black"/>
</svg>
