<svg width="24" height="24" viewBox="0 0 24 24" fill="none" xmlns="http://www.w3.org/2000/svg">
<path d="M16.2223 3H5.32729C4.59589 3 4 3.49569 4 4.10386V19.896C4 20.5051 4.59584 21 5.32729 21H18.6727C19.4049 21 20 20.5051 20 19.896V6.41322L16.2223 3ZM16.5355 4.6518L18.1914 6.14819H16.5355V4.6518ZM18.8853 19.896C18.8853 19.9933 18.7896 20.0731 18.6721 20.0731H5.32729C5.20994 20.0731 5.11477 19.9933 5.11477 19.896V4.10386C5.11477 4.0064 5.20994 3.92742 5.32729 3.92742H15.4202V6.61186C15.4202 6.86745 15.6706 7.07465 15.9781 7.07465H18.8852L18.8853 19.896Z" fill="black"/>
<path d="M10.1779 14.5227L7.80728 12.346L7 13.082L10.1779 16L17 9.73602L16.1984 9L10.1779 14.5227Z" fill="black"/>
</svg>
