<svg width="24" height="24" viewBox="0 0 24 24" fill="none" xmlns="http://www.w3.org/2000/svg">
  <path d="M17.6538 5.25H14.6923V4.6875C14.6923 3.75702 13.9676 3 13.0769 3H10.9231C10.0324 3 9.30769 3.75702 9.30769 4.6875V5.25H6.34615C5.60388 5.25 5 5.88084 5 6.65625V8.625C5 8.93564 5.2411 9.1875 5.53846 9.1875H5.83273L6.29793 19.3928C6.33902 20.294 7.04777 21 7.91146 21H16.0885C16.9523 21 17.661 20.294 17.7021 19.3928L18.1673 9.1875H18.4615C18.7589 9.1875 19 8.93564 19 8.625V6.65625C19 5.88084 18.3961 5.25 17.6538 5.25ZM10.3846 4.6875C10.3846 4.37735 10.6262 4.125 10.9231 4.125H13.0769C13.3738 4.125 13.6154 4.37735 13.6154 4.6875V5.25H10.3846V4.6875ZM6.07692 6.65625C6.07692 6.50118 6.19771 6.375 6.34615 6.375H17.6538C17.8023 6.375 17.9231 6.50118 17.9231 6.65625V8.0625C17.7571 8.0625 6.76457 8.0625 6.07692 8.0625V6.65625ZM16.6264 19.3393C16.6127 19.6397 16.3764 19.875 16.0885 19.875H7.91146C7.62355 19.875 7.3873 19.6397 7.37364 19.3393L6.91087 9.1875H17.0891L16.6264 19.3393Z" fill="black"/>
  <path d="M12.0001 18.75C12.2975 18.75 12.5386 18.4981 12.5386 18.1875V10.875C12.5386 10.5644 12.2975 10.3125 12.0001 10.3125C11.7028 10.3125 11.4617 10.5644 11.4617 10.875V18.1875C11.4617 18.4981 11.7027 18.75 12.0001 18.75Z" fill="black"/>
  <path d="M14.6923 18.75C14.9896 18.75 15.2307 18.4981 15.2307 18.1875V10.875C15.2307 10.5644 14.9896 10.3125 14.6923 10.3125C14.3949 10.3125 14.1538 10.5644 14.1538 10.875V18.1875C14.1538 18.4981 14.3949 18.75 14.6923 18.75Z" fill="black"/>
  <path d="M9.30775 18.75C9.60511 18.75 9.84621 18.4981 9.84621 18.1875V10.875C9.84621 10.5644 9.60511 10.3125 9.30775 10.3125C9.01038 10.3125 8.76929 10.5644 8.76929 10.875V18.1875C8.76929 18.4981 9.01035 18.75 9.30775 18.75Z" fill="black"/>
</svg>
