<svg width="24" height="24" viewBox="0 0 24 24" fill="none" xmlns="http://www.w3.org/2000/svg">
  <path d="M8.83594 14.6719H15.1641C15.4553 14.6719 15.6914 14.4358 15.6914 14.1445C15.6914 13.8533 15.4553 13.6172 15.1641 13.6172H8.83594C8.5447 13.6172 8.30859 13.8533 8.30859 14.1445C8.30859 14.4358 8.5447 14.6719 8.83594 14.6719Z" fill="black"/>
  <path d="M8.83594 16.7812H15.1641C15.4553 16.7812 15.6914 16.5451 15.6914 16.2539C15.6914 15.9627 15.4553 15.7266 15.1641 15.7266H8.83594C8.5447 15.7266 8.30859 15.9627 8.30859 16.2539C8.30859 16.5451 8.5447 16.7812 8.83594 16.7812Z" fill="black"/>
  <path d="M20.8455 5.96698L18.033 3.15448C17.9341 3.05555 17.8 3 17.6602 3H3.52734C3.23611 3 3 3.23611 3 3.52734V20.4727C3 20.7639 3.23611 21 3.52734 21C3.77034 21 20.3143 21 20.4727 21C20.7639 21 21 20.7639 21 20.4727V6.33984C21 6.19996 20.9444 6.06584 20.8455 5.96698ZM7.25391 4.05469H14.6367V7.57031H7.25391V4.05469ZM16.7461 19.9453H7.25391V12.5625H16.7461V19.9453ZM19.9453 19.9453H17.8008V12.0352C17.8008 11.7439 17.5647 11.5078 17.2734 11.5078H6.72656C6.43533 11.5078 6.19922 11.7439 6.19922 12.0352V19.9453H4.05469V4.05469H6.19922V8.09766C6.19922 8.38889 6.43533 8.625 6.72656 8.625H15.1641C15.4553 8.625 15.6914 8.38889 15.6914 8.09766V4.05469H17.4417L19.9453 6.55827V19.9453Z" fill="black"/>
  <path d="M8.83594 18.8906H15.1641C15.4553 18.8906 15.6914 18.6545 15.6914 18.3633C15.6914 18.072 15.4553 17.8359 15.1641 17.8359H8.83594C8.5447 17.8359 8.30859 18.072 8.30859 18.3633C8.30859 18.6545 8.5447 18.8906 8.83594 18.8906Z" fill="black"/>
</svg>
