<svg width="24" height="24" viewBox="0 0 24 24" fill="none" xmlns="http://www.w3.org/2000/svg">
<path d="M21.8169 18.9331L17.5512 14.6675C18.3775 13.6469 18.875 12.35 18.875 10.9375C18.875 7.66376 16.2112 5 12.9375 5C9.66373 5 7 7.66373 7 10.9375C7 14.2112 9.66376 16.875 12.9375 16.875C14.35 16.875 15.6469 16.3775 16.6675 15.5512L20.9331 19.8169C21.055 19.9387 21.215 20 21.375 20C21.535 20 21.695 19.9387 21.8169 19.8169C22.0613 19.5725 22.0613 19.1775 21.8169 18.9331ZM12.9375 15.625C10.3525 15.625 8.25001 13.5225 8.25001 10.9375C8.25001 8.35247 10.3525 6.24998 12.9375 6.24998C15.5225 6.24998 17.625 8.35247 17.625 10.9375C17.625 13.5225 15.5225 15.625 12.9375 15.625Z" fill="black"/>
<path d="M2 5.5C2 5.22386 2.22386 5 2.5 5H13.5C13.7761 5 14 5.22386 14 5.5C14 5.77614 13.7761 6 13.5 6H2.5C2.22386 6 2 5.77614 2 5.5Z" fill="black"/>
<path d="M2 8.5C2 8.22386 2.22386 8 2.5 8H8.5C8.77614 8 8.93473 8.22386 8.93473 8.5C8.5 8.5 8.77614 9 8.5 9H2.5C2.22386 9 2 8.77614 2 8.5Z" fill="black"/>
<path d="M2 11.5C2 11.2239 2.22386 11 2.5 11H7.5C7.77614 11 8 11.2239 8 11.5C8 11.7761 7.77614 12 7.5 12H2.5C2.22386 12 2 11.7761 2 11.5Z" fill="black"/>
<path d="M2 14.5C2 14.2239 2.22386 14 2.5 14H5.5C5.77614 14 6 14.2239 6 14.5C6 14.7761 5.77614 15 5.5 15H2.5C2.22386 15 2 14.7761 2 14.5Z" fill="black"/>
</svg>
